<?xml version="1.0" encoding="UTF-8" standalone="no"?>
<svg width="528" height="570" viewBox="0 0 528 570" fill="#FFE81F" xmlns="http://www.w3.org/2000/svg">
    <g transform="translate(-112.786, -248.096)">
        <rect x="254.305" y="248.096" width="238.533" height="78.533"/>
        <path d="M251.438 326.656C189.22 327.708 135.454 340.732 115.719 401.969V416.656H274.906C277.725 379.542 288.145 350.013 303.25 326.656H251.438z"/>
        <path d="M441.178 326.656C457.128 350.388 467.873 380.003 469.594 416.656H640.187V406.656C617.826 334.989 557.215 327.013 492.048 326.656H441.178z"/>
        <path d="M302.344 326.656C287.534 350.09 277.417 379.613 274.813 416.656H472.688C471.266 380.083 461.226 350.455 446.156 326.656H302.344z"/>
        <rect x="115.219" y="416.027" width="165.543" height="262.517"/>
        <rect x="476.844" y="409.957" width="163.541" height="272.638"/>
        <rect x="273.03" y="410.194" width="209.535" height="272.164"/>
        <path d="M251.438 762.128C189.22 761.076 135.454 748.052 115.719 686.816V672.128H274.906C277.725 709.243 288.145 738.772 303.25 762.128H251.438z"/>
        <path d="M302.344 762.128C287.534 738.695 277.417 709.171 274.813 672.128H472.688C471.266 708.702 461.226 738.33 446.156 762.128H302.344z"/>
        <path d="M441.178 760.108C457.128 737.708 467.873 709.755 469.594 675.159H640.187V684.598C617.826 752.243 557.215 759.771 492.048 760.108H441.178z"/>
        <rect x="217.188" y="753.835" width="321.339" height="64.196"/>
        <circle cx="304.286" cy="529.505" r="25.714" fill="black"/>
        <circle cx="445.715" cy="529.505" r="25.714" fill="black"/>
        <path d="M312.857 623.791C368.181 649.662 402.864 637.693 435.714 622.362" stroke="black" stroke-width="16" stroke-linecap="round" fill="none"/>
    </g>
</svg>