<?xml version="1.0" encoding="UTF-8"?>
<!-- Generator: Adobe Illustrator 16.0.0, SVG Export Plug-In . SVG Version: 6.00 Build 0)  -->
<!DOCTYPE svg PUBLIC "-//W3C//DTD SVG 1.1//EN" "http://www.w3.org/Graphics/SVG/1.1/DTD/svg11.dtd">
<svg version="1.1" id="Layer_1" xmlns="http://www.w3.org/2000/svg" xmlns:xlink="http://www.w3.org/1999/xlink" x="0px" y="0px" width="999.999px" height="286.568px" viewBox="0 0 999.999 286.568" enable-background="new 0 0 999.999 286.568" xml:space="preserve">
<g>
	<rect x="1.948" y="1.915" fill="#FFFFFF" width="282.744" height="282.745"/>
	<path fill="#FFED00" d="M265.879,119.441c-0.467,8.809-3.273,19.784-5.74,27.121c-9.942,29.541-21.467,47.854-48.167,47.854   c-7.854,0-21.802-2.088-26.939-16.072l-1.215-3.314l-2.186,2.768c-8.353,10.578-20.753,16.68-34.033,16.742   c-10.186,0.047-18.372-3.365-23.667-9.875l-1.451-1.783l-1.547,1.705c-5.655,6.248-15.505,9.83-27.019,9.83   c-9.043,0-16.856-3.072-21.989-8.654l-1.405-1.514l-1.456,1.465c-5.711,5.766-14.71,8.674-26.025,8.406   c-13.726-0.324-22.087-7.99-22.354-20.502c-0.417-19.293,18.259-59.886,25.987-72.232c5.02-8.246,11.919-12.242,21.104-12.242   c6.251,0,10.525,1.313,13.064,3.996c2.31,2.45,2.768,4.513,2.978,9.481l0.263,6.418l3.388-5.461   c8.199-13.207,21.784-15.033,35.245-15.033c9.355,0,17.521,3.443,20.803,8.773l1.205,1.961l1.758-1.494   c6.936-5.89,16.72-9.143,27.556-9.143c11.823,0,20.419,2.939,25.543,8.737c1.167,1.32,1.935,2.244,3.004,4.492l1.32,2.76   l1.976-2.338c7.503-8.875,17.746-13.373,30.463-13.373c10.066,0,17.713,2.679,22.719,7.956   C265.336,103.489,266.235,112.802,265.879,119.441 M1.948,284.66h282.744V1.915H1.948V284.66z"/>
	<path fill="#E3000B" d="M273.84,130.288c-1.277,10.289-8.232,29.356-11.931,36.971c-9.914,20.422-23.156,36.121-48.677,36.121   c-13.628,0-24.842-4.352-31.405-12.705c-9.601,8.414-21.483,12.822-34.281,12.822c-9.857,0-18.57-2.846-25.211-8.111   c-7.332,5.166-17.223,8.047-28.189,8.047c-9.168,0-17.408-2.512-23.857-7.162c-7.134,4.738-16.483,7.086-27.462,6.826   c-18.265-0.428-30.875-12.014-31.236-28.83c-0.482-22.342,18.339-63.236,27.203-77.402c6.637-10.902,16.766-16.77,29.178-16.77   c13.475,0,18.361,3.854,20.76,8.755c10.395-8.835,24.177-9.341,33.984-9.341c10.829,0,17.623,2.875,23.401,7.478   c7.981-4.789,17.141-7.279,28.051-7.279c13.944,0,24.299,3.245,31.529,10.39c8.428-7.013,18.978-10.216,30.794-10.216   c15.615,0,25.896,5.64,31.933,14.038C276.927,105.757,275.407,117.688,273.84,130.288 M1.948,284.66h282.744V1.915H1.948V284.66z"/>
	<path d="M282.628,282.625H3.948V3.945h278.68V282.625z M0,286.568h286.573V0H0V286.568z"/>
	<path d="M273.714,79.585c-3.796,0-6.854,3.069-6.854,6.873c0,3.796,3.059,6.856,6.854,6.856c3.808,0,6.874-3.061,6.874-6.856   C280.588,82.654,277.521,79.585,273.714,79.585 M273.714,80.941c3.056,0,5.534,2.464,5.534,5.517c0,3.043-2.479,5.52-5.534,5.52   c-3.046,0-5.499-2.477-5.499-5.52C268.215,83.405,270.668,80.941,273.714,80.941 M277.21,90.032l-0.822-1.426   c-0.717-1.253-0.916-1.447-1.523-1.664v-0.034c1.2-0.145,1.919-0.923,1.919-1.996c0-1.125-0.719-1.986-2.243-1.986h-3.549v7.106   h1.47V87.12h0.268c0.629,0,0.879,0.073,1.163,0.356c0.288,0.29,0.722,0.895,0.973,1.393l0.571,1.163H277.21z M272.461,85.985   v-1.948h1.325c0.968,0,1.472,0.341,1.472,0.964c0,0.501-0.325,0.984-1.313,0.984H272.461z"/>
	<path d="M238.24,118.872c-0.294,7.324-11.027,36.606-14.835,43.067c-1.652,2.801-3.516,5.113-6.87,5.113   c-2.925-0.004-4.235-2.08-4.313-4.453c-0.213-6.607,11.908-39.737,16.057-45.11c1.847-2.852,3.897-3.305,6.25-3.273   C237.969,114.257,238.325,116.74,238.24,118.872 M257.787,130.831c-2.438,12.132-7.919,26.487-13.87,37.19   c-9.707,17.453-21.497,19.895-31.787,19.775c-10.297-0.123-21.9-3.926-21.99-19.805c-0.063-11.4,4.862-27.5,9.031-38.052   c7.276-19.118,14.711-34.712,38.224-34.433C264.81,95.835,259.919,120.216,257.787,130.831 M170.734,113.814   c-3.97,0-6.565,2.514-8.491,5.227c-4.25,5.971-13.466,29.886-14.896,39.71c-0.981,6.725,1.924,8.098,5.1,8.098   c5.094,0,10.81-5.389,12.758-14.285c0,0-9.702-0.234-7.021-8.834c2.593-8.346,7.523-10.155,15.691-10.489   c16.1-0.664,14.507,11.23,13.218,17.566c-4.18,20.584-18.83,37.115-39.551,37.115c-14.184,0-22.994-7.844-22.994-22.316   c0-10.305,5.116-26.486,9.167-35.958c8.632-20.15,17.675-34.258,40.729-34.258c13.828,0,24.739,4.971,23.139,17.928   c-1.171,9.508-5.932,15.094-14.576,15.771c-2.42,0.187-12.313-0.064-9.03-9.422C175.123,116.388,175.596,113.814,170.734,113.814    M98.61,149.47c-0.944,2.561-2.746,7.945-4.197,13.641c4.708-1.172,8.236-1.99,14.285-1.844c6.892,0.168,11.295,3.021,11.295,8.723   c0,13.811-15.269,17.871-25.856,17.871c-11.63,0-21.84-6.619-21.84-19.34c0-14.906,8.075-37.516,15.662-52.57   c9.314-18.49,18.826-20.953,35.218-20.953c7.204,0,15.501,3.082,15.501,9.875c0,9.431-7.985,13.026-15.905,13.479   c-3.379,0.197-8.58,0.385-11.696,0.163c0,0-2.637,4.017-5.441,11.166c14.667-2.063,20.884,1.27,18.409,9.754   C120.702,150.888,110.768,151.64,98.61,149.47 M51.908,162.718c14.342-2.494,17.946,2.689,17.497,7.488   c-1.354,14.377-14.541,17.596-25.988,17.322c-8.305-0.195-15.769-3.996-15.98-13.646c-0.366-16.857,16.843-55.881,24.939-68.818   c3.736-6.139,8.291-9.175,15.563-9.175c6.887,0,8.591,3.537,8.491,7.773C76.155,114.958,57.899,149.3,51.908,162.718    M236.342,86.943c-14.813,0-25.041,5.877-31.974,14.075c-1.168-2.454-2.059-3.533-3.309-4.94c-5.672-6.417-14.788-9.41-27.023-9.41   c-11.951,0-21.921,3.728-28.837,9.612c-3.597-5.838-12.154-9.71-22.488-9.71c-13.49,0-28.196,1.915-36.918,15.969   c-0.212-5.069-0.67-7.74-3.514-10.755c-3.458-3.655-9.054-4.619-14.504-4.619c-9.933,0-17.399,4.34-22.779,13.175   c-7.803,12.466-26.714,53.46-26.285,73.32c0.276,12.826,8.878,22.076,24.285,22.432c12.027,0.287,21.467-2.924,27.475-8.986   c5.388,5.852,13.607,9.285,23.444,9.285c10.954,0,21.977-3.287,28.484-10.475c5.485,6.738,14.114,10.654,25.207,10.598   c14.508-0.068,27.253-6.947,35.574-17.488c4.569,12.428,16.144,17.365,28.791,17.365c27.72,0,39.897-19.059,50.041-49.199   c2.287-6.789,5.332-18.121,5.838-27.639C268.694,103.711,261.99,86.943,236.342,86.943"/>
	<polygon points="970.781,270.152 970.781,272.24 976.068,272.248 976.068,286.037 978.187,286.037 978.187,272.195    983.502,272.195 983.502,270.152  "/>
	<polygon points="985.173,270.146 985.186,286.037 987.175,286.037 987.175,273.39 991.371,286.037 993.747,286.035    997.901,273.394 997.91,286.013 999.999,286.013 999.999,270.15 997.102,270.146 992.578,283.138 987.914,270.146  "/>
	<path fill="#FFFFFF" d="M932.177,193.003h67.822v-44.639H912.78c-8.168,0-19.62,4.215-26.212,9.113c-6.577,4.893-16.116,16.055-16.116,31.424   c0.008,15.375,9.312,27.33,9.312,27.33c4.765,5.928,16.775,18.287,16.775,18.287c0.258,0.301,0.444,0.678,0.436,1.104   c0.009,0.922-0.75,1.668-1.671,1.668l-67.177,0.014c-8.168-0.043-8.736-3.307-8.736-3.766c0-0.836,1.021-1.363,1.021-1.363   c3.06-1.473,9.304-6.365,9.304-6.365c13.277-10.375,14.864-24.607,14.864-32.24c-0.008-7.625-1.136-21.145-14.748-32.994   c-13.619-11.834-30.874-12.189-30.874-12.189h-95.853c0,0-0.009,136.848,0,136.873c-0.009,0.424,0.392,0.777,0.833,0.777   c0.081,0.004,53.372,0,53.372,0v-38.379c0-0.672,1.012,0.004,1.012,0.004l27.81,28.014c9.875,10.025,26.22,10.361,26.22,10.361   l105.085-0.014c17.929,0,27.917-9.791,30.641-12.529c2.729-2.734,11.801-12.971,11.801-29.945c0-16.969-7.708-25.639-11.013-29.633   c-2.943-3.564-14.66-16.012-17.103-18.574c-0.282-0.252-0.456-0.613-0.469-1.018C931.293,193.726,931.633,193.169,932.177,193.003    M788.618,204.736h-29.923c0,0-0.794-0.217-0.794-1.131l-0.031-15.15c0-0.924,0.794-1.145,0.794-1.145h27.467   c3.176,0,9.646,1.592,9.646,8.994C795.776,203.71,788.618,204.736,788.618,204.736"/>
	<path fill="#FFFFFF" d="M649.724,149.626c-0.198-0.68-0.806-1.203-1.533-1.264l-73.709,0.014c-0.734,0.061-1.342,0.563-1.536,1.25   c0,0-40.756,134.955-40.756,135.207c0,0.672,0.552,1.211,1.219,1.211l48.725-0.008c0.391-0.137,0.674-0.502,0.771-0.928   l5.668-18.191c0.188-0.445,0.607-0.756,1.121-0.781l44.938-0.031c0.501,0.027,0.922,0.371,1.108,0.813l5.794,18.205   c0.09,0.412,0.384,0.789,0.786,0.938c0,0,47.878-0.016,47.938-0.016c0.668,0,1.22-0.51,1.228-1.191   C691.484,284.634,649.724,149.626,649.724,149.626 M622.67,228.687l-20.073,0.006c-0.705-0.021-1.228-0.814-1.228-1.563   c0-0.299,10.69-34.832,10.69-34.832c0.382-1.305,0.421-1.338,0.568-1.346l0.011,0.008c0.155-0.012,0.187,0.033,0.556,1.338   c0,0,10.69,34.533,10.69,34.832C623.885,227.878,623.323,228.671,622.67,228.687"/>
	<path fill="#FFFFFF" d="M507.846,286.037c0.36,0,0.607-0.26,0.726-0.65c0,0,41.298-136.076,41.298-136.197c0-0.373-0.234-0.773-0.578-0.813   c0,0-50.859,0-50.88,0.006c-0.264,0-0.422,0.199-0.479,0.475c0,0.012-10.521,35.383-10.533,35.4   c-0.068,0.299-0.218,0.48-0.473,0.484c-0.255,0-0.467-0.25-0.508-0.49l-11.023-35.42c-0.037-0.229-0.226-0.455-0.479-0.455   c-0.019,0-56.197-0.012-56.197-0.012c-0.175,0.033-0.301,0.17-0.373,0.334c0,0-9.885,35.541-9.885,35.551   c-0.054,0.297-0.212,0.484-0.479,0.484c-0.247,0-0.442-0.178-0.474-0.418l-10.481-35.518c-0.028-0.217-0.194-0.404-0.412-0.436   l-54.251,0.014c-0.454,0.006-0.814,0.363-0.814,0.795c0.008,0.082,0.028,0.232,0.028,0.232s41.881,135.922,41.902,135.982   c0.113,0.395,0.36,0.658,0.713,0.654c0.068,0.004,45.067,0.004,45.067,0.004c0.275-0.021,0.549-0.344,0.628-0.658   c0-0.002,15.668-50.592,15.668-50.592v-0.012c0.11-0.303,0.216-0.48,0.483-0.486c0.264,0,0.421,0.215,0.479,0.479l15.298,50.82   c0.089,0.26,0.331,0.449,0.615,0.445C462.463,286.044,507.846,286.037,507.846,286.037"/>
	<path fill="#FFFFFF" d="M933.715,89.438c-8.16-0.037-8.736-3.294-8.736-3.757c0-0.838,1.032-1.363,1.032-1.363c3.056-1.483,9.3-6.382,9.3-6.382   c13.276-10.367,14.868-24.586,14.868-32.221c0-7.624-1.136-21.151-14.756-32.997c-13.612-11.841-30.86-12.215-30.86-12.215h-95.871   c0,0,0,136.882,0.009,136.894c-0.009,0.441,0.396,0.795,0.837,0.786h53.372V99.801c0-0.678,1.021,0,1.021,0l27.809,28.006   c9.863,10.031,26.208,10.376,26.208,10.376h82.053V89.438H933.715z M894.218,56.881l-29.915-0.003c0,0-0.8-0.212-0.8-1.13   l-0.029-15.162c0-0.902,0.801-1.133,0.801-1.133h27.464c3.176,0.003,9.644,1.592,9.644,8.998   C901.374,55.85,894.218,56.881,894.218,56.881"/>
	<path fill="#FFFFFF" d="M757.889,1.713c-0.206-0.684-0.803-1.177-1.538-1.21h-73.71c-0.734,0.029-1.333,0.522-1.54,1.196   c0,0-40.705,135.006-40.705,135.256c0,0.675,0.538,1.224,1.219,1.224l48.703,0.004c0.41-0.131,0.696-0.519,0.786-0.933   l5.668-18.216c0.187-0.433,0.607-0.747,1.106-0.772l44.938,0.005c0.514,0.041,0.926,0.348,1.108,0.789l5.807,18.194   c0.108,0.414,0.393,0.802,0.773,0.936c0,0,47.9-0.007,47.951-0.007c0.668,0.004,1.206-0.522,1.206-1.197   C799.661,136.765,757.889,1.713,757.889,1.713 M730.863,80.812h-20.082c-0.734-0.011-1.207-0.809-1.207-1.551   c0-0.301,10.679-34.837,10.679-34.837c0.373-1.297,0.493-1.337,0.57-1.337c0.089,0,0.195,0.04,0.567,1.337   c0,0,10.688,34.536,10.688,34.837C732.078,80.003,731.581,80.801,730.863,80.812"/>
	<path fill="#FFFFFF" d="M468.649,0.503c-8.166,0-19.628,4.216-26.21,9.112c-6.58,4.898-16.121,16.056-16.121,31.43   c0.009,15.374,9.314,27.33,9.314,27.33c4.756,5.923,16.779,18.368,16.779,18.368c0.256,0.305,0.43,0.682,0.43,1.103   c0,0.927-0.742,1.673-1.665,1.673c-0.139,0.003-109.627,0.009-109.627,0.009v48.655h131.747c17.947,0,27.93-9.796,30.655-12.535   c2.716-2.724,11.794-12.978,11.794-29.938c0-16.967-7.706-25.741-11-29.721c-2.952-3.565-14.669-15.945-17.111-18.502   c-0.284-0.247-0.471-0.612-0.471-1.016c0-0.598,0.332-1.159,0.883-1.329h63.452v93.041h48.8V45.372h59.238V0.503H468.649z"/>
</g>
</svg>